<svg width="25" height="25" viewBox="0 0 25 25" fill="none" xmlns="http://www.w3.org/2000/svg">
<g clip-path="url(#clip0)">
<path d="M12.4989 0C5.59536 0.000611147 -0.000611097 5.59755 5.00537e-08 12.5011C0.000611197 19.4046 5.59755 25.0006 12.5011 25C19.4042 24.9994 25 19.4031 25 12.5C24.9922 5.59923 19.3996 0.00718098 12.4989 0Z" fill="#3865D9"/>
<path d="M10.3325 19.5676C10.0325 19.5681 9.78883 19.3253 9.78827 19.0253C9.78802 18.8806 9.84546 18.7419 9.94788 18.6397L16.0844 12.5054L9.94788 6.37117C9.73948 6.15539 9.74544 5.81146 9.96122 5.60301C10.1718 5.3997 10.5055 5.3997 10.716 5.60301L17.2349 12.1219C17.447 12.334 17.447 12.6779 17.2349 12.8901L10.716 19.409C10.6142 19.5105 10.4763 19.5676 10.3325 19.5676Z" fill="#FAFAFA"/>
</g>
<defs>
<clipPath id="clip0">
<rect width="25" height="25" fill="white"/>
</clipPath>
</defs>
</svg>
